<svg xmlns="http://www.w3.org/2000/svg" height="24" viewBox="0 -960 960 960" width="24"><path d="M184.615-120Q157-120 138.5-138.5 120-157 120-184.615v-390.77Q120-603 138.5-621.5 157-640 184.615-640H400v-160q0-16.846 11.577-28.423Q423.154-840 440-840h80q16.846 0 28.423 11.577Q560-816.846 560-800v160h215.385Q803-640 821.5-621.5 840-603 840-575.385v390.77Q840-157 821.5-138.5 803-120 775.385-120h-590.77Zm0-40h590.77q10.769 0 17.692-6.923T800-184.615v-390.77q0-10.769-6.923-17.692T775.385-600H560v30.769q0 16.077-11.961 28.039-11.962 11.961-28.039 11.961h-80q-16.077 0-28.039-11.961Q400-553.154 400-569.231V-600H184.615q-10.769 0-17.692 6.923T160-575.385v390.77q0 10.769 6.923 17.692T184.615-160Zm67.693-103.077h215.384v-5.692q0-13.923-7.577-25.346-7.576-11.423-20.73-17.885-19.231-8.231-38.962-12.346-19.731-4.116-40.423-4.116t-40.423 4.116q-19.731 4.115-38.962 12.346-13.154 6.462-20.73 17.885-7.577 11.423-7.577 25.346v5.692ZM560-324.615h160V-360H560v35.385ZM360-360q19.615 0 33.654-14.038 14.038-14.039 14.038-33.654 0-19.616-14.038-33.654-14.039-14.039-33.654-14.039-19.615 0-33.654 14.039-14.038 14.038-14.038 33.654 0 19.615 14.038 33.654Q340.385-360 360-360Zm200-60h160v-35.385H560V-420ZM440-569.231h80V-800h-80v230.769ZM480-380Z"/></svg>