<svg width="24" height="24" viewBox="0 0 24 24" fill="none" xmlns="http://www.w3.org/2000/svg">
<path d="M4.3246 9H19.6746L18.8246 6H5.1996L4.3246 9ZM16.7996 11H7.2246L6.9496 13H17.0496L16.7996 11ZM3.9996 20L5.2246 11H2.9996C2.66626 11 2.40376 10.8667 2.2121 10.6C2.02043 10.3333 1.96626 10.0417 2.0496 9.725L3.4746 4.725C3.54126 4.50833 3.65793 4.33333 3.8246 4.2C3.99126 4.06667 4.19126 4 4.4246 4H19.5746C19.8079 4 20.0079 4.06667 20.1746 4.2C20.3413 4.33333 20.4579 4.50833 20.5246 4.725L21.9496 9.725C22.0329 10.0417 21.9788 10.3333 21.7871 10.6C21.5954 10.8667 21.3329 11 20.9996 11H18.7996L19.9996 20H17.9996L17.3246 15H6.6746L5.9996 20H3.9996Z" fill="#FF0060"/>
</svg>
