<svg width="24" height="24" viewBox="0 0 24 24" fill="none" xmlns="http://www.w3.org/2000/svg">
<path d="M5.61538 20C5.15513 20 4.77083 19.8458 4.4625 19.5375C4.15417 19.2292 4 18.8449 4 18.3846V5.61537C4 5.15512 4.15417 4.77083 4.4625 4.4625C4.77083 4.15417 5.15513 4 5.61538 4H18.3846C18.8449 4 19.2292 4.15417 19.5375 4.4625C19.8458 4.77083 20 5.15512 20 5.61537V18.3846C20 18.8449 19.8458 19.2292 19.5375 19.5375C19.2292 19.8458 18.8449 20 18.3846 20H5.61538ZM5 11.5V18.3846C5 18.5385 5.0641 18.6795 5.1923 18.8077C5.32052 18.9359 5.46154 19 5.61538 19H18.3846C18.5385 19 18.6795 18.9359 18.8077 18.8077C18.9359 18.6795 19 18.5385 19 18.3846V11.5H16V16H8V11.5H5ZM9 15H15V11.5H9V15ZM5 10.5H19V5.61537C19 5.46154 18.9359 5.32052 18.8077 5.1923C18.6795 5.0641 18.5385 5 18.3846 5H5.61538C5.46154 5 5.32052 5.0641 5.1923 5.1923C5.0641 5.32052 5 5.46154 5 5.61537V10.5ZM7.96155 8.1923C7.75513 8.1923 7.57533 8.1157 7.42213 7.9625C7.26891 7.8093 7.1923 7.62949 7.1923 7.42307C7.1923 7.21666 7.26891 7.03685 7.42213 6.88365C7.57533 6.73045 7.75513 6.65385 7.96155 6.65385C8.16795 6.65385 8.34776 6.73045 8.50098 6.88365C8.65418 7.03685 8.73077 7.21666 8.73077 7.42307C8.73077 7.62949 8.65418 7.8093 8.50098 7.9625C8.34776 8.1157 8.16795 8.1923 7.96155 8.1923ZM11.9616 8.1923C11.7551 8.1923 11.5753 8.1157 11.4221 7.9625C11.2689 7.8093 11.1923 7.62949 11.1923 7.42307C11.1923 7.21666 11.2689 7.03685 11.4221 6.88365C11.5753 6.73045 11.7551 6.65385 11.9616 6.65385C12.168 6.65385 12.3478 6.73045 12.501 6.88365C12.6542 7.03685 12.7308 7.21666 12.7308 7.42307C12.7308 7.62949 12.6542 7.8093 12.501 7.9625C12.3478 8.1157 12.168 8.1923 11.9616 8.1923ZM15.9615 8.1923C15.7551 8.1923 15.5753 8.1157 15.4221 7.9625C15.2689 7.8093 15.1923 7.62949 15.1923 7.42307C15.1923 7.21666 15.2689 7.03685 15.4221 6.88365C15.5753 6.73045 15.7551 6.65385 15.9615 6.65385C16.1679 6.65385 16.3478 6.73045 16.501 6.88365C16.6542 7.03685 16.7308 7.21666 16.7308 7.42307C16.7308 7.62949 16.6542 7.8093 16.501 7.9625C16.3478 8.1157 16.1679 8.1923 15.9615 8.1923Z" fill="#FD1F55"/>
</svg>
