<svg width="44" height="22" viewBox="0 0 44 22" fill="none" xmlns="http://www.w3.org/2000/svg">
<path d="M35 20C32.5 20 30.375 19.125 28.625 17.375C26.875 15.625 26 13.5 26 11C26 8.5 26.875 6.375 28.625 4.625C30.375 2.875 32.5 2 35 2C35.2333 2 35.4625 2.00833 35.6875 2.025C35.9125 2.04167 36.1333 2.06667 36.35 2.1C35.6667 2.58333 35.1208 3.2125 34.7125 3.9875C34.3042 4.7625 34.1 5.6 34.1 6.5C34.1 8 34.625 9.275 35.675 10.325C36.725 11.375 38 11.9 39.5 11.9C40.4167 11.9 41.2583 11.6958 42.025 11.2875C42.7917 10.8792 43.4167 10.3333 43.9 9.65C43.9333 9.86667 43.9583 10.0875 43.975 10.3125C43.9917 10.5375 44 10.7667 44 11C44 13.5 43.125 15.625 41.375 17.375C39.625 19.125 37.5 20 35 20ZM35 18C36.4667 18 37.7833 17.5958 38.95 16.7875C40.1167 15.9792 40.9667 14.925 41.5 13.625C41.1667 13.7083 40.8333 13.775 40.5 13.825C40.1667 13.875 39.8333 13.9 39.5 13.9C37.45 13.9 35.7042 13.1792 34.2625 11.7375C32.8208 10.2958 32.1 8.55 32.1 6.5C32.1 6.16667 32.125 5.83333 32.175 5.5C32.225 5.16667 32.2917 4.83333 32.375 4.5C31.075 5.03333 30.0208 5.88333 29.2125 7.05C28.4042 8.21667 28 9.53333 28 11C28 12.9333 28.6833 14.5833 30.05 15.95C31.4167 17.3167 33.0667 18 35 18Z" fill="black"/>
</svg>
