<svg xmlns="http://www.w3.org/2000/svg" height="24" viewBox="0 -960 960 960" width="24"><path d="M137-187.5v-578.562q0-24.376 16.531-40.907Q170.062-823.5 194.5-823.5H591q-1.5 6.5-2.25 12.5T587-798H194.5q-12 0-22 10t-10 22v517l73-73h530q12 0 22-10t10-22v-264.5q6.913-1.341 12.956-2.92Q816.5-623 823-625v270.87q0 24.568-16.531 41.099-16.531 16.531-40.747 16.531H246l-109 109ZM162.5-766v516-548 32Zm597.559 72q-38.559 0-65.559-27.029-27-27.03-27-65.75 0-38.721 27.088-65.721 27.089-27 65.5-27 38.412 0 65.662 27.071Q853-825.358 853-786.971 853-748 825.809-721q-27.191 27-65.75 27Z"/></svg>