<svg width="24" height="24" viewBox="0 0 24 24" fill="none" xmlns="http://www.w3.org/2000/svg">
<path d="M5.3077 20.5C4.80898 20.5 4.38302 20.3233 4.02982 19.9701C3.67661 19.6169 3.5 19.191 3.5 18.6923V5.3077C3.5 4.80898 3.67661 4.38302 4.02982 4.02982C4.38302 3.67661 4.80898 3.5 5.3077 3.5H16.7884L20.5 7.21153V12.1269C20.2602 12.032 20.0128 11.9718 19.7577 11.9461C19.5025 11.9205 19.25 11.923 19 11.9538V7.8346L16.1654 4.99998H5.3077C5.21795 4.99998 5.14423 5.02883 5.08653 5.08653C5.02883 5.14423 4.99997 5.21795 4.99997 5.3077V18.6923C4.99997 18.782 5.02883 18.8557 5.08653 18.9134C5.14423 18.9711 5.21795 19 5.3077 19H10.9231V20.5H5.3077ZM13.1154 22.5V19.8577L18.5442 14.4538C18.6686 14.3295 18.8032 14.242 18.9481 14.1913C19.0929 14.1407 19.2378 14.1154 19.3827 14.1154C19.5378 14.1154 19.6894 14.1449 19.8375 14.2038C19.9855 14.2628 20.1185 14.3513 20.2365 14.4692L21.1615 15.4038C21.2692 15.5282 21.3525 15.6628 21.4115 15.8077C21.4705 15.9525 21.5 16.0974 21.5 16.2423C21.5 16.3871 21.473 16.5346 21.4192 16.6846C21.3653 16.8346 21.2794 16.9718 21.1615 17.0961L15.7577 22.4999H13.1154V22.5ZM14.3077 21.3077H15.2577L18.5038 18.0461L18.0442 17.5711L17.5788 17.1019L14.3077 20.3577V21.3077ZM18.0442 17.5711L17.5788 17.1019L18.5038 18.0461L18.0442 17.5711ZM6.38463 9.88458H14.5961V6.38463H6.38463V9.88458ZM12 17.2692C12.0679 17.2692 12.1327 17.2627 12.1942 17.2499C12.2558 17.2371 12.3173 17.2147 12.3789 17.1826L14.4134 15.1731C14.4455 15.1013 14.4679 15.0355 14.4807 14.9759C14.4935 14.9163 14.5 14.8474 14.5 14.7692C14.5 14.0769 14.2564 13.4872 13.7692 13C13.282 12.5128 12.6923 12.2692 12 12.2692C11.3077 12.2692 10.7179 12.5128 10.2308 13C9.74359 13.4872 9.5 14.0769 9.5 14.7692C9.5 15.4615 9.74359 16.0512 10.2308 16.5384C10.7179 17.0256 11.3077 17.2692 12 17.2692Z" fill="#6C9BCF"/>
</svg>
